<?xml version="1.0" encoding="UTF-8"?>
<svg id="Layer_1" data-name="Layer 1" xmlns="http://www.w3.org/2000/svg" viewBox="0 0 176 166">
  <defs>
    <style>
      .cls-1 {
        fill: #ffb700;
      }

      .cls-2 {
        fill: #d91907;
      }

      .cls-3 {
        font-family: 'DIN Narrow', 'Arial Narrow', Arial, sans-serif;
        font-size: 28px;
        font-weight: 800;
      }

      .cls-4 {
        fill: #fb0;
      }

      .cls-5 {
        fill: #009619;
      }

      .cls-6 {
        fill: #656d78;
      }

      .cls-7 {
        fill: #494e57;
      }

      .cls-8 {
        fill: #bdbdbd;
      }

      .cls-9 {
        fill: #ffea00;
      }

      .cls-10 {
        fill: #83c400;
      }

      .cls-11 {
        fill: #f58b00;
      }

      .cls-12 {
        fill: #ff4230;
      }

      .cls-13 {
        fill: #6fa600;
      }

      .cls-14 {
        fill: #ebebeb;
      }

      .cls-15 {
        fill: #ccc;
      }

      .cls-16 {
        fill: #00b81e;
      }

      .cls-17 {
        fill: #d9d9d9;
      }
    </style>
  </defs>
  <path class="cls-16" d="M123.92,151.37l6.75,11.68c25.57-14.8,42.79-42.42,42.79-74.09h-13.49c0,26.67-14.5,49.94-36.04,62.4Z"/>
  <path class="cls-10" d="M130.67,14.88l-6.75,11.68c21.54,12.46,36.04,35.73,36.04,62.4h13.49c0-31.67-17.22-59.29-42.79-74.09Z"/>
  <path class="cls-9" d="M87.89,16.9c13.13,0,25.43,3.53,36.03,9.66l6.75-11.68c-12.59-7.28-27.19-11.47-42.78-11.47s-30.19,4.19-42.78,11.47l6.75,11.68c10.6-6.13,22.9-9.66,36.03-9.66Z"/>
  <path class="cls-1" d="M51.86,26.56l-6.75-11.68C19.55,29.67,2.33,57.3,2.33,88.97h13.49c0-26.67,14.5-49.94,36.04-62.4Z"/>
  <path class="cls-12" d="M15.82,88.97H2.33c0,31.67,17.22,59.29,42.79,74.09l6.75-11.68c-21.54-12.46-36.04-35.73-36.04-62.4Z"/>
  <path class="cls-13" d="M127.4,20.54l-3.48,6.02c21.54,12.46,36.04,35.73,36.04,62.4h6.96c0-29.25-15.9-54.76-39.52-68.43Z"/>
  <path class="cls-11" d="M51.86,26.56l-3.48-6.02C24.77,34.2,8.87,59.72,8.87,88.97h6.96c0-26.67,14.5-49.94,36.04-62.4Z"/>
  <path class="cls-5" d="M166.91,88.97h-6.96c0,26.67-14.5,49.94-36.04,62.4l3.48,6.02c23.62-13.66,39.52-39.18,39.52-68.43Z"/>
  <path class="cls-4" d="M87.89,16.9c13.13,0,25.43,3.53,36.03,9.66l3.48-6.02c-11.62-6.73-25.11-10.6-39.51-10.6s-27.88,3.87-39.51,10.6l3.48,6.02c10.6-6.13,22.9-9.66,36.03-9.66Z"/>
  <path class="cls-2" d="M15.82,88.97h-6.96c0,29.25,15.9,54.76,39.52,68.43l3.48-6.02c-21.54-12.46-36.04-35.73-36.04-62.4Z"/>
  <path class="cls-15" d="M143.65,87.48c-.49-18.8-10.57-36.24-26.63-46.1l7.42-12.85c20.63,12.51,33.55,34.88,34.05,58.96h-14.84Z"/>
  <path class="cls-15" d="M117.02,136.49c16.06-9.86,26.13-27.3,26.63-46.1h14.84c-.5,24.08-13.41,46.44-34.05,58.96l-7.42-12.85Z"/>
  <path class="cls-15" d="M17.29,87.48c.5-24.08,13.41-46.44,34.05-58.96l7.42,12.85c-16.06,9.86-26.13,27.3-26.63,46.1h-14.84Z"/>
  <path class="cls-15" d="M51.34,149.34c-20.63-12.51-33.55-34.88-34.05-58.96h14.84c.49,18.8,10.57,36.24,26.63,46.1l-7.42,12.85Z"/>
  <path class="cls-15" d="M114.51,39.92c-8.15-4.43-17.32-6.77-26.62-6.77s-18.47,2.34-26.62,6.77l-7.42-12.85c10.4-5.73,22.14-8.76,34.04-8.76s23.64,3.02,34.04,8.76l-7.42,12.85Z"/>
  <g>
    <path d="M45.59,133.52l1.24,1.12-4.62,5.13-1.24-1.12,4.62-5.13Z"/>
    <path d="M37.05,134.76l.98-.97,1,1.02,3.93-3.88,1.17,1.19-3.93,3.88,1,1.02-.98.97-3.18-3.23Z"/>
    <path d="M36.72,132l2.04.31-2.17,1.9-1.04-1.18,1.17-1.03Z"/>
    <path d="M34.27,128.4c-.23.45-.19.78.05,1.1.26.33.56.31.83.09.32-.25.33-.55.1-1.27-.42-1.33-.27-2.02.66-2.74.99-.77,2.12-.63,2.93.41.67.87.88,1.64.59,2.6l-1.4-.39c.17-.48.1-.88-.14-1.19-.31-.4-.62-.36-.88-.16-.32.25-.35.49-.1,1.34.38,1.24.16,2.03-.72,2.71-.9.7-2,.67-2.9-.48-.57-.74-.78-1.61-.43-2.4l1.41.38Z"/>
    <path d="M34.84,120.12c.7,1.17.43,2.56-1.34,3.62l-.93.55c-1.78,1.07-3.12.65-3.82-.52-.7-1.16-.44-2.54,1.35-3.61l.93-.55c1.77-1.06,3.12-.65,3.82.51ZM32.64,122.3c.97-.58,1.29-1.02,1.02-1.47-.26-.44-.8-.37-1.77.21l-.93.56c-.97.58-1.29,1.02-1.02,1.46.27.45.81.38,1.78-.21l.93-.56Z"/>
    <path d="M26.5,119.5l3.26-2.63-4.09.95-.77-1.59,7.06-1.27.66,1.36-5.35,4.77-.77-1.59Z"/>
    <path d="M23.19,111.82l1.28-.5.78,1.99,1.17-.46-.68-1.75,1.28-.5.68,1.75,1.4-.55-.78-1.99,1.28-.5,1.39,3.55-6.42,2.52-1.39-3.55Z"/>
    <path d="M28.53,105.81l-2.24,1.61.14.48,2.5-.75.48,1.6-6.61,1.98-.67-2.24c-.39-1.3.04-2.4,1.42-2.82.86-.26,1.54-.1,1.98.31l2.48-1.88.51,1.7ZM24.99,107.92c-.14-.45-.34-.82-.96-.64-.63.19-.64.62-.5,1.08l.11.38,1.47-.44-.11-.38Z"/>
    <path d="M26.83,102.26c-.12.02-.24.03-.36,0-.12-.02-.22-.06-.31-.13-.09-.06-.18-.15-.25-.26-.07-.11-.12-.23-.15-.38-.03-.14-.03-.28,0-.4.02-.12.07-.23.13-.33.06-.09.14-.17.24-.24s.21-.11.33-.13c.12-.02.24-.02.35,0,.11.02.22.06.31.13.09.06.17.15.24.26s.12.23.15.38c.03.15.03.28.01.4-.02.12-.06.24-.13.33s-.14.18-.24.24c-.1.06-.21.11-.33.13Z"/>
    <path d="M26.7,81.97l-.18,1.66-6.85-.75.18-1.66,6.85.75Z"/>
    <path d="M22.41,77.12c-.49.13-.71.38-.78.78-.07.42.15.62.49.68.4.07.63-.12,1.01-.78.7-1.21,1.31-1.56,2.47-1.36,1.23.22,1.89,1.14,1.67,2.44-.19,1.08-.62,1.75-1.53,2.19l-.66-1.3c.47-.19.72-.52.79-.91.09-.5-.15-.7-.48-.76-.39-.07-.6.07-1.06.83-.66,1.11-1.4,1.49-2.49,1.29-1.12-.2-1.84-1.03-1.59-2.47.16-.92.67-1.65,1.49-1.93l.67,1.29Z"/>
    <path d="M28.83,71.9l-.49,1.51-6.94-.97.56-1.73,3.77.74-3.34-2.07.45-1.38,3.92.29-3.48-1.63.56-1.72,6.18,3.31-.49,1.51-4.3-.22,3.61,2.36Z"/>
    <path d="M27.44,63.45l.63-1.38-2.4-1.1.69-1.52,6.27,2.86-.69,1.52-2.62-1.2-.63,1.38,2.62,1.2-.69,1.52-6.28-2.86.69-1.52,2.4,1.1Z"/>
    <path d="M32.74,62.09l-5-5.16.82-1.44,6.98,1.69-.87,1.52-1.15-.36-.81,1.41.89.81-.87,1.52ZM31.71,58.73l.41-.72-1.95-.65,1.53,1.36Z"/>
    <path d="M32.14,49.98l1.14.77-.8,1.19,4.57,3.1-.94,1.39-4.56-3.1-.8,1.19-1.14-.77,2.55-3.76Z"/>
    <path d="M40.57,50.47l-1.07,1.29-5.32-4.4,1.07-1.29,5.32,4.4Z"/>
    <path d="M38.96,42l1.01.94-.98,1.05,4.03,3.76-1.14,1.22-4.03-3.77-.98,1.05-1.01-.94,3.1-3.32Z"/>
    <path d="M47.19,43.8l-1.25,1.11-4.58-5.16,1.25-1.11,4.58,5.16Z"/>
    <path d="M47.3,37.3c-.45-.23-.78-.19-1.1.05-.33.26-.31.56-.09.83.25.32.55.33,1.27.1,1.33-.43,2.02-.28,2.74.65.77.99.64,2.11-.4,2.93-.87.68-1.64.88-2.6.6l.39-1.4c.48.17.88.1,1.19-.14.4-.31.36-.62.16-.88-.25-.32-.49-.35-1.34-.1-1.24.38-2.03.16-2.71-.71-.7-.9-.67-2,.48-2.9.74-.58,1.6-.78,2.4-.43l-.37,1.41Z"/>
    <path d="M68.01,24.8l2,3.69-.19-4.19,1.7-.47-.03,7.17-1.46.4-3.72-6.14,1.7-.47Z"/>
    <path d="M75.47,30.1l-1.64.34-1.4-6.76,1.64-.34,1.4,6.76Z"/>
    <path d="M77.64,22.76c1.39-.19,2.34.25,2.51,1.5.1.7-.09,1.15-.43,1.51.53.24.94.68,1.06,1.52.15,1.09-.43,2.06-2.01,2.28l-2.32.32-.95-6.83,2.14-.3ZM77.52,25.43l.4-.06c.51-.07.64-.34.59-.7-.05-.39-.18-.63-.89-.53l-.27.04.17,1.25ZM77.92,28.29l.48-.07c.57-.08.74-.41.68-.86-.07-.5-.32-.71-.98-.62l-.38.05.21,1.5Z"/>
    <path d="M83.42,29.1l-1.67.12-.51-6.89,1.67-.12.51,6.89Z"/>
    <path d="M89.2,22.06l.12,6.9-1.27.02-2.09-3.44.06,3.48-1.57.03-.12-6.9,1.26-.02,2.1,3.49-.06-3.53,1.57-.03Z"/>
    <path d="M94.95,25.77l-.06.74c-.17,2.05-1.14,2.93-2.48,2.81-1.36-.11-2.32-1.15-2.15-3.2l.08-.94c.19-2.21,1.31-3.05,2.66-2.94,1.31.11,1.96,1.05,2.02,2.41l-1.59-.13c0-.43-.1-.86-.55-.9-.52-.04-.77.44-.87,1.56l-.09,1.08c-.09,1.13.07,1.64.6,1.69.51.04.67-.37.76-.93l-.61-.05.12-1.38,2.17.18Z"/>
    <path d="M97.08,29c.02-.12.06-.24.12-.34s.14-.18.23-.25c.09-.06.2-.11.33-.14s.26-.03.41,0,.27.07.38.14c.11.07.19.15.26.24.07.09.11.2.14.31.02.12.03.24,0,.36-.02.12-.06.23-.13.33s-.14.18-.23.24c-.09.06-.2.11-.33.13-.12.02-.26.02-.4,0-.15-.03-.27-.07-.38-.14-.11-.07-.2-.14-.26-.24s-.11-.2-.14-.31c-.02-.11-.02-.23,0-.35Z"/>
    <path d="M102.91,30.23c.03-.12.09-.23.16-.32.07-.09.16-.17.26-.22.1-.06.21-.09.34-.1s.26,0,.4.04c.14.04.26.1.37.18s.18.17.24.26c.06.1.09.21.1.32.01.12,0,.24-.03.36-.03.12-.09.22-.16.32-.07.09-.16.17-.26.22-.1.06-.21.09-.34.1-.13.01-.26,0-.4-.04-.14-.04-.26-.1-.37-.17-.1-.08-.18-.16-.24-.26-.06-.1-.09-.21-.1-.32-.01-.11,0-.23.03-.35Z"/>
    <path d="M108.59,32.01c.05-.12.11-.22.19-.31s.17-.15.28-.2c.1-.04.22-.07.35-.07.13,0,.26.02.4.08s.25.12.35.21c.09.09.16.18.21.29.05.1.07.21.07.33s-.02.24-.07.35c-.04.12-.11.22-.19.3-.08.08-.17.15-.28.19-.1.05-.22.07-.35.07s-.26-.03-.4-.08c-.14-.05-.25-.12-.35-.21-.09-.08-.17-.18-.21-.28-.05-.1-.07-.21-.07-.33s.02-.23.06-.35Z"/>
    <path d="M126.58,43.38l-1.2-1.05,3.62-6,1.37,1.2-2.17,3.18,3.22-2.25,1.09.96-1.81,3.49,2.87-2.56,1.36,1.2-5.47,4.38-1.2-1.05,1.89-3.87-3.59,2.38Z"/>
    <path d="M138.24,45.16l-1.01.94-1.46-1.56-.92.86,1.28,1.37-1.01.94-1.28-1.37-1.1,1.02,1.46,1.56-1.01.94-2.6-2.79,5.04-4.71,2.6,2.79Z"/>
    <path d="M138.6,48.03l-2.03-.36,2.22-1.85,1.01,1.21-1.2,1Z"/>
    <path d="M136.95,54.66l1.58-2.27-.3-.41-2.11,1.54-.99-1.35,5.57-4.07,1.38,1.89c.8,1.1.76,2.28-.4,3.13-.73.53-1.41.61-1.97.37l-1.71,2.6-1.05-1.43ZM139.57,51.49c.28.38.6.66,1.12.28.53-.39.39-.8.11-1.18l-.23-.32-1.23.9.23.32Z"/>
    <path d="M146.12,56.17l-1.18.72-1.12-1.82-1.07.66.98,1.6-1.18.72-.98-1.6-1.28.79,1.12,1.82-1.18.72-2-3.25,5.89-3.61,2,3.25Z"/>
    <path d="M148.67,61.18c.59,1.27.45,2.31-.7,2.84-.64.3-1.13.25-1.57.03-.07.58-.37,1.1-1.14,1.45-1,.46-2.09.19-2.77-1.25l-.99-2.12,6.25-2.91.91,1.96ZM143.47,63.06l.2.44c.24.52.6.59,1.02.39.45-.21.59-.52.31-1.12l-.16-.35-1.37.64ZM146.09,61.85l.17.37c.22.47.51.51.84.36.35-.16.55-.36.25-1l-.11-.25-1.14.53Z"/>
    <path d="M143.49,66.36l7.17-.47.56,1.55-5.81,4.22-.6-1.65,1.02-.65-.55-1.53-1.2.16-.59-1.64ZM146.71,67.74l.28.78,1.75-1.06-2.03.29Z"/>
    <path d="M150.75,73.24c.42-.14.78-.39.66-.83-.14-.51-.67-.58-1.77-.29l-1.04.28c-1.04.28-1.52.62-1.38,1.14.12.43.44.47.98.38l.41,1.54c-1.55.2-2.4-.32-2.73-1.56-.35-1.31.29-2.57,2.28-3.11l1.04-.28c2.01-.54,3.18.23,3.53,1.54.3,1.13-.18,2.14-1.58,2.72l-.41-1.54Z"/>
    <path d="M147.22,79.66l2.33-1.44-.88-.27-1.7.3-.29-1.65,6.79-1.2.29,1.65-2.42.43,2.63.74.32,1.82-3.06-1.03-3.68,2.5-.33-1.86Z"/>
    <path d="M148.51,83.48c.13-.01.25,0,.36.04.11.03.21.09.3.16.09.08.16.17.21.28.06.11.09.24.1.39.01.15,0,.28-.04.4s-.09.23-.17.31c-.07.09-.16.16-.27.21-.1.05-.22.08-.35.09-.12,0-.24,0-.35-.04-.11-.04-.21-.09-.29-.16-.09-.07-.16-.17-.21-.28-.06-.11-.09-.25-.1-.39-.01-.15,0-.28.04-.4.04-.12.09-.23.16-.31.07-.09.16-.16.26-.21s.22-.08.34-.09Z"/>
    <path d="M144.67,112.99l-.83,1.97-1.27-.53,1.47-3.52,6.37,2.66-.65,1.54-5.1-2.13Z"/>
    <path d="M146.8,121.36l-1.23-.62.96-1.91-1.27-.64-.85,1.67-1.23-.62.85-1.67-2.43-1.23.75-1.49,6.16,3.12-1.72,3.4Z"/>
    <path d="M141.15,124.48l-.63-.39c-1.76-1.07-2.11-2.33-1.4-3.48.71-1.16,2.06-1.56,3.82-.49l.8.49c1.89,1.16,2.14,2.54,1.43,3.7-.68,1.12-1.82,1.29-3.06.73l.83-1.36c.38.2.81.3,1.05-.09.27-.45-.04-.89-1.01-1.48l-.92-.56c-.96-.59-1.5-.67-1.77-.22-.27.44.03.76.49,1.09l.32-.53,1.18.72-1.13,1.86Z"/>
    <path d="M136.66,124.49l.9-1.29,1.28.9-.9,1.29-1.28-.9ZM142.33,128.41l.85-1.21-4.1-2.88-.85,1.21,4.1,2.88Z"/>
    <path d="M135.2,126.43l.95-1.25,1.24.95-.95,1.25-1.24-.95ZM140.71,130.58l.89-1.17-3.98-3.04-.89,1.17,3.98,3.04Z"/>
    <path d="M133.64,128.33l1-1.21,1.2,1-1,1.21-1.2-1ZM138.98,132.7l.94-1.13-3.85-3.2-.94,1.13,3.85,3.2Z"/>
  </g>
  <g id="needle">
    <polygon class="cls-6" points="83.95 82.37 155.14 48.32 91.83 95.44 83.95 82.37"/>
    <polygon class="cls-7" points="87.89 88.91 155.14 48.32 91.83 95.44 87.89 88.91"/>
  </g>
  <circle class="cls-17" cx="87.89" cy="89.38" r="25.37" transform="translate(-37.46 88.33) rotate(-45)"/>
  <path class="cls-8" d="M113.26,89.38c0,14.01-11.36,25.37-25.37,25.37s-25.37-11.36-25.37-25.37h50.74Z"/>
  <circle class="cls-14" cx="87.89" cy="89.38" r="23.33" transform="translate(-37.46 88.33) rotate(-45)"/>
  <text id="score" class="cls-3" transform="translate(87.89 100)" text-anchor="middle"><tspan x="0" y="0">100</tspan></text>
</svg>